<svg xmlns="http://www.w3.org/2000/svg" width="720" height="420" viewBox="0 0 720 420" font-family="system-ui, sans-serif">
<rect width="720" height="420" fill="#ffffff"/>
<text x="78" y="30" font-size="17" font-weight="600" fill="#1d2733">Objetivos concluidos por partida</text>
<line x1="78" y1="358.0" x2="570" y2="358.0" stroke="#e4e8ee" stroke-width="1"/>
<text x="68" y="362.0" font-size="11" text-anchor="end" fill="#66707c">0</text>
<line x1="78" y1="281.4" x2="570" y2="281.4" stroke="#e4e8ee" stroke-width="1"/>
<text x="68" y="285.4" font-size="11" text-anchor="end" fill="#66707c">1.78</text>
<line x1="78" y1="204.9" x2="570" y2="204.9" stroke="#e4e8ee" stroke-width="1"/>
<text x="68" y="208.9" font-size="11" text-anchor="end" fill="#66707c">3.56</text>
<line x1="78" y1="128.3" x2="570" y2="128.3" stroke="#e4e8ee" stroke-width="1"/>
<text x="68" y="132.3" font-size="11" text-anchor="end" fill="#66707c">5.34</text>
<line x1="78" y1="52.2" x2="570" y2="52.2" stroke="#e4e8ee" stroke-width="1"/>
<text x="68" y="56.2" font-size="11" text-anchor="end" fill="#66707c">7.11</text>
<line x1="78" y1="358" x2="570" y2="358" stroke="#96a0ac" stroke-width="1"/>
<text x="78.0" y="380" font-size="12" text-anchor="middle" fill="#414b57">8</text>
<text x="234.5" y="380" font-size="12" text-anchor="middle" fill="#414b57">15</text>
<text x="570.0" y="380" font-size="12" text-anchor="middle" fill="#414b57">30</text>
<text x="324" y="404" font-size="12" text-anchor="middle" fill="#66707c">tamanho do mapa</text>
<text x="18" y="205" font-size="12" fill="#66707c" text-anchor="middle" transform="rotate(-90 18 205)">objetivos</text>
<polyline points="78.0,160.1 234.5,279.2 570.0,253.3" fill="none" stroke="#d1495b" stroke-width="2.5" stroke-linejoin="round" stroke-linecap="round"/>
<circle cx="78.0" cy="160.1" r="4" fill="#d1495b"/>
<circle cx="234.5" cy="279.2" r="4" fill="#d1495b"/>
<circle cx="570.0" cy="253.3" r="4" fill="#d1495b"/>
<rect x="592" y="50" width="12" height="12" rx="3" fill="#d1495b"/>
<text x="610" y="60" font-size="12" fill="#1d2733">dfs</text>
<polyline points="78.0,84.1 234.5,197.4 570.0,185.9" fill="none" stroke="#2a9d8f" stroke-width="2.5" stroke-linejoin="round" stroke-linecap="round"/>
<circle cx="78.0" cy="84.1" r="4" fill="#2a9d8f"/>
<circle cx="234.5" cy="197.4" r="4" fill="#2a9d8f"/>
<circle cx="570.0" cy="185.9" r="4" fill="#2a9d8f"/>
<rect x="592" y="72" width="12" height="12" rx="3" fill="#2a9d8f"/>
<text x="610" y="82" font-size="12" fill="#1d2733">bfs</text>
<polyline points="78.0,79.8 234.5,190.2 570.0,170.2" fill="none" stroke="#3d5a80" stroke-width="2.5" stroke-linejoin="round" stroke-linecap="round"/>
<circle cx="78.0" cy="79.8" r="4" fill="#3d5a80"/>
<circle cx="234.5" cy="190.2" r="4" fill="#3d5a80"/>
<circle cx="570.0" cy="170.2" r="4" fill="#3d5a80"/>
<rect x="592" y="94" width="12" height="12" rx="3" fill="#3d5a80"/>
<text x="610" y="104" font-size="12" fill="#1d2733">dijkstra</text>
</svg>